<mxfile host="app.diagrams.net" agent="Mozilla/5.0 (Windows NT 10.0; Win64; x64) AppleWebKit/537.36 (KHTML, like Gecko) Chrome/135.0.0.0 Safari/537.36 OPR/120.0.0.0" version="28.0.9">
  <diagram name="Page-1" id="yiOKuUuSApPGLSMHls8P">
    <mxGraphModel dx="1415" dy="435" grid="1" gridSize="10" guides="1" tooltips="1" connect="1" arrows="1" fold="1" page="1" pageScale="1" pageWidth="850" pageHeight="1100" math="0" shadow="0">
      <root>
        <mxCell id="0" />
        <mxCell id="1" parent="0" />
        <mxCell id="RAs32KpJlCHKYsDaDuBX-1" value="" style="ellipse;html=1;shape=startState;fillColor=light-dark(#000000,#000000);strokeColor=light-dark(#FF0000,#FFFFFF);" parent="1" vertex="1">
          <mxGeometry x="160" y="50" width="30" height="30" as="geometry" />
        </mxCell>
        <mxCell id="RAs32KpJlCHKYsDaDuBX-2" value="" style="edgeStyle=orthogonalEdgeStyle;html=1;verticalAlign=bottom;endArrow=block;endSize=8;strokeColor=light-dark(#FF0000,#000000);rounded=0;endFill=1;entryX=0.5;entryY=0;entryDx=0;entryDy=0;" parent="1" source="RAs32KpJlCHKYsDaDuBX-1" target="RAs32KpJlCHKYsDaDuBX-3" edge="1">
          <mxGeometry relative="1" as="geometry">
            <mxPoint x="175" y="150" as="targetPoint" />
          </mxGeometry>
        </mxCell>
        <mxCell id="RAs32KpJlCHKYsDaDuBX-3" value="Capture user&#39;s new phone number from keyboard input" style="rounded=0;whiteSpace=wrap;html=1;" parent="1" vertex="1">
          <mxGeometry x="115" y="120" width="120" height="60" as="geometry" />
        </mxCell>
        <mxCell id="RAs32KpJlCHKYsDaDuBX-4" value="" style="edgeStyle=orthogonalEdgeStyle;html=1;verticalAlign=bottom;endArrow=block;endSize=8;strokeColor=light-dark(#FF0000,#000000);rounded=0;endFill=1;entryX=0.5;entryY=0;entryDx=0;entryDy=0;exitX=0.5;exitY=1;exitDx=0;exitDy=0;" parent="1" source="RAs32KpJlCHKYsDaDuBX-3" target="RAs32KpJlCHKYsDaDuBX-5" edge="1">
          <mxGeometry relative="1" as="geometry">
            <mxPoint x="175" y="260" as="targetPoint" />
            <mxPoint x="175" y="190" as="sourcePoint" />
          </mxGeometry>
        </mxCell>
        <mxCell id="RAs32KpJlCHKYsDaDuBX-5" value="Compare with phone numbers in the database" style="rounded=0;whiteSpace=wrap;html=1;" parent="1" vertex="1">
          <mxGeometry x="115" y="230" width="120" height="60" as="geometry" />
        </mxCell>
        <mxCell id="FtlkBK22vBwoZkC2UCPd-2" value="" style="edgeStyle=orthogonalEdgeStyle;html=1;verticalAlign=bottom;endArrow=block;endSize=8;strokeColor=light-dark(#FF0000,#000000);rounded=0;endFill=1;exitX=0.5;exitY=1;exitDx=0;exitDy=0;entryX=0.5;entryY=0;entryDx=0;entryDy=0;" edge="1" parent="1" target="FtlkBK22vBwoZkC2UCPd-1">
          <mxGeometry relative="1" as="geometry">
            <mxPoint x="175" y="340" as="targetPoint" />
            <mxPoint x="175" y="290" as="sourcePoint" />
          </mxGeometry>
        </mxCell>
        <mxCell id="FtlkBK22vBwoZkC2UCPd-1" value="" style="rhombus;whiteSpace=wrap;html=1;" vertex="1" parent="1">
          <mxGeometry x="135" y="360" width="80" height="80" as="geometry" />
        </mxCell>
        <mxCell id="FtlkBK22vBwoZkC2UCPd-3" value="" style="edgeStyle=elbowEdgeStyle;elbow=horizontal;endArrow=classic;html=1;curved=0;rounded=0;endSize=8;startSize=8;fontSize=12;strokeColor=light-dark(#000000,#000000);exitX=1;exitY=0.5;exitDx=0;exitDy=0;entryX=0.5;entryY=0;entryDx=0;entryDy=0;" edge="1" parent="1" source="FtlkBK22vBwoZkC2UCPd-1" target="FtlkBK22vBwoZkC2UCPd-5">
          <mxGeometry width="50" height="50" relative="1" as="geometry">
            <mxPoint x="190" y="440" as="sourcePoint" />
            <mxPoint x="340" y="440" as="targetPoint" />
            <Array as="points">
              <mxPoint x="310" y="440" />
            </Array>
          </mxGeometry>
        </mxCell>
        <mxCell id="FtlkBK22vBwoZkC2UCPd-4" value="Match found" style="edgeLabel;html=1;align=center;verticalAlign=middle;resizable=0;points=[];fontSize=12;" vertex="1" connectable="0" parent="FtlkBK22vBwoZkC2UCPd-3">
          <mxGeometry x="-0.7992" y="2" relative="1" as="geometry">
            <mxPoint x="30" y="2" as="offset" />
          </mxGeometry>
        </mxCell>
        <mxCell id="FtlkBK22vBwoZkC2UCPd-5" value="Throw an error, clear the input form and go back to the phone number input" style="rounded=0;whiteSpace=wrap;html=1;" vertex="1" parent="1">
          <mxGeometry x="250" y="480" width="120" height="60" as="geometry" />
        </mxCell>
        <mxCell id="FtlkBK22vBwoZkC2UCPd-6" value="" style="edgeStyle=elbowEdgeStyle;elbow=horizontal;endArrow=classic;html=1;curved=0;rounded=0;endSize=8;startSize=8;fontSize=12;strokeColor=light-dark(#000000,#000000);exitX=1;exitY=0.5;exitDx=0;exitDy=0;entryX=1;entryY=0.5;entryDx=0;entryDy=0;" edge="1" parent="1" source="FtlkBK22vBwoZkC2UCPd-5" target="RAs32KpJlCHKYsDaDuBX-3">
          <mxGeometry width="50" height="50" relative="1" as="geometry">
            <mxPoint x="370" y="570" as="sourcePoint" />
            <mxPoint x="465" y="650" as="targetPoint" />
            <Array as="points">
              <mxPoint x="465" y="610" />
            </Array>
          </mxGeometry>
        </mxCell>
        <mxCell id="FtlkBK22vBwoZkC2UCPd-7" value="Match found" style="edgeLabel;html=1;align=center;verticalAlign=middle;resizable=0;points=[];fontSize=12;" vertex="1" connectable="0" parent="FtlkBK22vBwoZkC2UCPd-6">
          <mxGeometry x="-0.7992" y="2" relative="1" as="geometry">
            <mxPoint x="30" y="2" as="offset" />
          </mxGeometry>
        </mxCell>
        <mxCell id="FtlkBK22vBwoZkC2UCPd-8" value="" style="edgeStyle=elbowEdgeStyle;elbow=horizontal;endArrow=classic;html=1;curved=0;rounded=0;endSize=8;startSize=8;fontSize=12;strokeColor=light-dark(#000000,#000000);exitX=0;exitY=0.5;exitDx=0;exitDy=0;entryX=0.5;entryY=0;entryDx=0;entryDy=0;" edge="1" parent="1" source="FtlkBK22vBwoZkC2UCPd-1" target="FtlkBK22vBwoZkC2UCPd-10">
          <mxGeometry width="50" height="50" relative="1" as="geometry">
            <mxPoint x="95" y="390" as="sourcePoint" />
            <mxPoint x="40" y="490" as="targetPoint" />
            <Array as="points">
              <mxPoint x="40" y="430" />
            </Array>
          </mxGeometry>
        </mxCell>
        <mxCell id="FtlkBK22vBwoZkC2UCPd-9" value="Match not found" style="edgeLabel;html=1;align=center;verticalAlign=middle;resizable=0;points=[];fontSize=12;" vertex="1" connectable="0" parent="FtlkBK22vBwoZkC2UCPd-8">
          <mxGeometry x="-0.7992" y="2" relative="1" as="geometry">
            <mxPoint x="-65" y="-12" as="offset" />
          </mxGeometry>
        </mxCell>
        <mxCell id="FtlkBK22vBwoZkC2UCPd-10" value="User saves the information via the button &quot;save changes&quot;" style="rounded=0;whiteSpace=wrap;html=1;" vertex="1" parent="1">
          <mxGeometry x="-20" y="480" width="120" height="60" as="geometry" />
        </mxCell>
        <mxCell id="FtlkBK22vBwoZkC2UCPd-11" value="" style="ellipse;html=1;shape=endState;fillColor=#000000;strokeColor=light-dark(#000000,#000000);" vertex="1" parent="1">
          <mxGeometry x="25" y="610" width="30" height="30" as="geometry" />
        </mxCell>
        <mxCell id="FtlkBK22vBwoZkC2UCPd-12" value="" style="edgeStyle=orthogonalEdgeStyle;html=1;verticalAlign=bottom;endArrow=block;endSize=8;strokeColor=light-dark(#FF0000,#000000);rounded=0;endFill=1;exitX=0.5;exitY=1;exitDx=0;exitDy=0;entryX=0.5;entryY=0;entryDx=0;entryDy=0;" edge="1" parent="1" target="FtlkBK22vBwoZkC2UCPd-11" source="FtlkBK22vBwoZkC2UCPd-10">
          <mxGeometry relative="1" as="geometry">
            <mxPoint x="75" y="620" as="targetPoint" />
            <mxPoint x="40" y="550" as="sourcePoint" />
          </mxGeometry>
        </mxCell>
      </root>
    </mxGraphModel>
  </diagram>
</mxfile>
